<svg width="82" height="36" viewBox="0 0 82 36" fill="none" xmlns="http://www.w3.org/2000/svg">
<mask id="path-1-inside-1_797_1531" fill="white">
<path d="M0 0H81.931V36H0V0Z"/>
</mask>
<path d="M0 0H81.931V36H0V0Z" fill="#FFE5B0"/>
<path d="M0 0V-3H-3V0H0ZM81.931 0H84.931V-3H81.931V0ZM81.931 36V39H84.931V36H81.931ZM0 36H-3V39H0V36ZM0 3H81.931V-3H0V3ZM78.931 0V36H84.931V0H78.931ZM81.931 33H0V39H81.931V33ZM3 36V0H-3V36H3Z" fill="#FFF7E6" mask="url(#path-1-inside-1_797_1531)"/>
<path d="M31.056 16.7681C31.0559 16.7681 31.0574 16.7681 31.0606 16.7679L31.056 16.7681ZM48.355 16.7631L48.3904 16.7631L48.8297 17.477L49.1451 17.9894C49.3209 17.8119 49.3764 17.7032 49.3925 17.6599C49.3759 17.6155 49.318 17.5022 49.1311 17.3165L49.1311 17.3165L49.1278 17.3131C48.8686 17.054 48.6072 16.7945 48.3442 16.5347L48.355 16.7631ZM49.3986 17.6384C49.3984 17.6384 49.3978 17.6407 49.3973 17.6453C49.3986 17.6407 49.3988 17.6384 49.3986 17.6384ZM49.3973 17.6746C49.3978 17.6792 49.3984 17.6815 49.3986 17.6815C49.3988 17.6815 49.3986 17.6792 49.3973 17.6746ZM38.6824 29.0176L38.7463 29.0011L38.6824 29.0176Z" fill="#FFAA00" stroke="#FFAA00" stroke-width="3"/>
</svg>
